<svg width="40" height="40" viewBox="0 0 40 40" fill="none" xmlns="http://www.w3.org/2000/svg">
<path d="M33.7953 1.99558H30.8756C29.5506 1.99707 28.4769 3.01711 28.4753 4.27584V6.70941L21.7812 0.662069C20.8175 -0.22069 19.2912 -0.22069 18.3274 0.662069L0.950114 16.3606C0.162277 17.0717 -0.0864358 18.1688 0.323398 19.1249C0.69219 20.0545 1.63029 20.6684 2.67597 20.6644H3.20934V37.6663C3.2225 38.9656 4.34023 40.0096 5.7079 40H34.399C35.7666 40.0096 36.8844 38.9656 36.8975 37.6663V20.6644H37.4309C38.4766 20.6684 39.4147 20.0545 39.7835 19.1249C40.1933 18.1687 39.9446 17.0717 39.1567 16.3606L36.1957 13.685V4.27584C36.194 3.01711 35.1203 1.99707 33.7953 1.99558ZM29.879 4.27584C29.8798 3.75328 30.3255 3.3298 30.8756 3.32909H33.7953C34.3453 3.3298 34.7911 3.75328 34.7918 4.27584V12.4168L29.879 7.9776V4.27584ZM38.4794 18.6309C38.3181 19.0494 37.8999 19.3286 37.4308 19.3309H36.1955C35.8079 19.3309 35.4937 19.6295 35.4937 19.9977V37.6663C35.4811 38.2293 34.9915 38.6765 34.3989 38.6664H5.70782C5.11515 38.6765 4.62562 38.2293 4.61295 37.6663V19.9977C4.61295 19.6294 4.29869 19.3309 3.91115 19.3309H2.67589C2.20676 19.3286 1.78862 19.0494 1.62733 18.6309C1.42887 18.1812 1.54426 17.6618 1.91717 17.3267L19.2967 1.62288C19.7166 1.22877 20.3921 1.22877 20.8119 1.62288L38.1901 17.3247C38.5636 17.6604 38.6787 18.1807 38.4794 18.6309Z" fill="#025595"/>
<path fill-rule="evenodd" clip-rule="evenodd" d="M8.29858 24.7083C8.29858 30.6038 13.3482 35.4007 19.554 35.4007C25.7598 35.4007 30.8092 30.6038 30.8092 24.7083C30.8092 24.3564 30.7918 24.0084 30.7571 23.6653C30.7161 23.2648 30.3427 22.9731 29.9191 23.0101C29.4975 23.0489 29.1886 23.4047 29.2294 23.8062C29.259 24.1026 29.2744 24.4039 29.2744 24.7083C29.2744 29.7998 24.9135 33.9426 19.554 33.9426C14.1943 33.9426 9.8334 29.7998 9.8334 24.7083C9.8334 19.6166 14.1943 15.4737 19.554 15.4737C21.4172 15.4737 23.2303 15.9781 24.7958 16.9337C25.1529 17.1514 25.6268 17.0533 25.8568 16.7141C26.0862 16.3749 25.9818 15.9238 25.6256 15.706C23.8115 14.5998 21.712 14.0156 19.554 14.0156C13.3482 14.0156 8.29858 18.8128 8.29858 24.7083ZM20.2907 26.9242C20.44 27.0669 20.6365 27.138 20.8329 27.138C21.0294 27.138 21.2258 27.0669 21.3762 26.9251L32.6316 16.2324C32.9314 15.9477 32.9314 15.486 32.6316 15.2012C32.3319 14.9164 31.8459 14.9164 31.5459 15.2012L20.834 25.3777L16.7718 21.5185C16.472 21.2337 15.986 21.2337 15.6862 21.5185C15.3864 21.8033 15.3864 22.265 15.6862 22.55L20.2907 26.9242Z" fill="#025595"/>
</svg>
